<svg width="1280" height="640" viewBox="0 0 1280 640" fill="none" xmlns="http://www.w3.org/2000/svg" role="img" aria-labelledby="title desc">
  <title id="title">Nexary social preview</title>
  <desc id="desc">Social preview for Nexary, a provider-neutral Java middleware framework.</desc>
  <rect width="1280" height="640" fill="#F8FAFC"/>
  <circle cx="1080" cy="116" r="260" fill="#CCFBF1" opacity="0.55"/>
  <circle cx="118" cy="554" r="240" fill="#E0F2FE" opacity="0.65"/>

  <rect x="152" y="142" width="164" height="164" rx="44" fill="#0F172A"/>
  <path d="M192 252V196H213L258 252H237L192.5 196H214L262 252H283V196H262V231L232 196H192V252Z" fill="#F8FAFC"/>
  <circle cx="292" cy="184" r="13" fill="#19B67F"/>
  <circle cx="306" cy="224" r="13" fill="#14B8A6"/>
  <circle cx="292" cy="264" r="13" fill="#0EA5A4"/>
  <path d="M274 205L286 190M274 224H296M274 243L286 258" stroke="#F8FAFC" stroke-width="7" stroke-linecap="round"/>

  <text x="360" y="222" fill="#0F172A" font-family="Inter, ui-sans-serif, system-ui, -apple-system, BlinkMacSystemFont, Segoe UI, sans-serif" font-size="92" font-weight="780" letter-spacing="-1.2">Nexary</text>
  <text x="366" y="280" fill="#0F766E" font-family="Inter, ui-sans-serif, system-ui, -apple-system, BlinkMacSystemFont, Segoe UI, sans-serif" font-size="24" font-weight="760" letter-spacing="2.4">PROVIDER-NEUTRAL JAVA MIDDLEWARE</text>

  <text x="158" y="414" fill="#334155" font-family="Inter, ui-sans-serif, system-ui, -apple-system, BlinkMacSystemFont, Segoe UI, sans-serif" font-size="31" font-weight="520">Cache, messaging, jobs, and governance extensions behind stable APIs.</text>

  <g>
    <rect x="160" y="474" width="128" height="42" rx="21" fill="#ECFDF5"/>
    <text x="194" y="502" fill="#047857" font-family="Inter, ui-sans-serif, system-ui, -apple-system, BlinkMacSystemFont, Segoe UI, sans-serif" font-size="18" font-weight="700">Cache</text>
    <rect x="308" y="474" width="162" height="42" rx="21" fill="#EFF6FF"/>
    <text x="344" y="502" fill="#1D4ED8" font-family="Inter, ui-sans-serif, system-ui, -apple-system, BlinkMacSystemFont, Segoe UI, sans-serif" font-size="18" font-weight="700">Messaging</text>
    <rect x="490" y="474" width="104" height="42" rx="21" fill="#F0FDFA"/>
    <text x="523" y="502" fill="#0F766E" font-family="Inter, ui-sans-serif, system-ui, -apple-system, BlinkMacSystemFont, Segoe UI, sans-serif" font-size="18" font-weight="700">Job</text>
    <rect x="614" y="474" width="174" height="42" rx="21" fill="#F8FAFC" stroke="#CBD5E1"/>
    <text x="651" y="502" fill="#334155" font-family="Inter, ui-sans-serif, system-ui, -apple-system, BlinkMacSystemFont, Segoe UI, sans-serif" font-size="18" font-weight="700">Governance</text>
  </g>
</svg>
